# Blender v2.90.1 OBJ File: ''
# www.blender.org
mtllib testHouse.mtl
o Cube
v 1.998148 3.942069 -1.998148
v 1.998148 -0.054227 -1.998148
v 1.998148 3.942069 1.998148
v 1.998148 -0.054227 1.998148
v -1.998148 3.942069 -1.998148
v -1.998148 -0.054227 -1.998148
v -1.998148 3.942069 1.998148
v -1.998148 -0.054227 1.998148
v -1.998148 -0.054227 0.000000
v 1.998148 5.675827 0.000000
v -1.998148 5.675827 0.000000
v 1.998148 -0.054227 0.000000
vt 0.625000 0.625000
vt 0.875000 0.625000
vt 0.875000 0.750000
vt 0.625000 0.750000
vt 0.375000 0.750000
vt 0.625000 1.000000
vt 0.375000 1.000000
vt 0.375000 0.125000
vt 0.625000 0.125000
vt 0.625000 0.250000
vt 0.375000 0.250000
vt 0.125000 0.625000
vt 0.375000 0.625000
vt 0.125000 0.750000
vt 0.625000 0.500000
vt 0.375000 0.500000
vt 0.125000 0.500000
vt 0.375000 0.000000
vt 0.625000 0.000000
vt 0.875000 0.500000
vn 0.0000 0.7553 0.6554
vn 0.0000 0.0000 1.0000
vn -1.0000 0.0000 0.0000
vn 0.0000 -1.0000 0.0000
vn 1.0000 0.0000 0.0000
vn 0.0000 0.0000 -1.0000
vn 0.0000 0.7553 -0.6554
usemtl Base
s off
f 10/1/1 11/2/1 7/3/1 3/4/1
f 4/5/2 3/4/2 7/6/2 8/7/2
f 9/8/3 11/9/3 5/10/3 6/11/3
f 9/12/4 12/13/4 4/5/4 8/14/4
f 12/13/5 10/1/5 3/4/5 4/5/5
f 6/11/6 5/10/6 1/15/6 2/16/6
f 2/16/5 1/15/5 10/1/5 12/13/5
f 6/17/4 2/16/4 12/13/4 9/12/4
f 8/18/3 7/19/3 11/9/3 9/8/3
f 1/15/7 5/20/7 11/2/7 10/1/7
o Cube.001_Cube.002
v -2.301740 3.410672 2.595640
v -2.301740 6.006312 0.000000
v -2.301740 5.353120 0.000000
v -2.301740 3.410672 -2.595640
v 2.301740 3.410672 2.595640
v 2.301740 6.006312 0.000000
v 2.301740 5.353120 0.000000
v 2.301740 3.410672 -2.595640
vt 0.375000 0.000000
vt 0.625000 0.000000
vt 0.625000 0.250000
vt 0.375000 0.250000
vt 0.625000 0.500000
vt 0.375000 0.500000
vt 0.625000 0.750000
vt 0.375000 0.750000
vt 0.625000 1.000000
vt 0.375000 1.000000
vt 0.125000 0.500000
vt 0.125000 0.750000
vt 0.875000 0.500000
vt 0.875000 0.750000
vn -1.0000 0.0000 0.0000
vn 0.0000 -0.8006 0.5992
vn 1.0000 0.0000 0.0000
vn 0.0000 0.7071 0.7071
vn 0.0000 -0.8006 -0.5992
vn 0.0000 0.7071 -0.7071
usemtl Roof
s off
f 13/21/8 14/22/8 16/23/8 15/24/8
f 15/24/9 16/23/9 20/25/9 19/26/9
f 19/26/10 20/25/10 18/27/10 17/28/10
f 17/28/11 18/27/11 14/29/11 13/30/11
f 15/31/12 19/26/12 17/28/12 13/32/12
f 20/25/13 16/33/13 14/34/13 18/27/13
o Cube.002_Cube.003
v 1.840554 1.355474 0.359631
v 1.840554 3.336550 0.359631
v 1.840554 1.355474 -1.621445
v 1.840554 3.336550 -1.621445
v 2.134024 1.355474 0.359631
v 2.134024 3.336550 0.359631
v 2.134024 1.355474 -1.621445
v 2.134024 3.336550 -1.621445
v 2.134024 1.592580 0.122525
v 1.840554 1.592580 0.122525
v 2.134024 3.099444 0.122525
v 1.840554 3.099444 0.122525
v 2.134024 3.099444 -1.384339
v 1.840554 3.099444 -1.384339
v 2.134024 1.592580 -1.384339
v 1.840554 1.592580 -1.384339
vt 0.375000 0.000000
vt 0.625000 0.000000
vt 0.595079 0.029921
vt 0.404921 0.029921
vt 0.404921 0.220079
vt 0.375000 0.250000
vt 0.625000 0.250000
vt 0.625000 0.500000
vt 0.375000 0.500000
vt 0.595079 0.529921
vt 0.404921 0.529921
vt 0.404921 0.720079
vt 0.375000 0.750000
vt 0.625000 0.750000
vt 0.625000 1.000000
vt 0.375000 1.000000
vt 0.125000 0.500000
vt 0.125000 0.750000
vt 0.875000 0.500000
vt 0.875000 0.750000
vt 0.375000 0.304110
vt 0.375000 0.445890
vt 0.625000 0.445890
vt 0.625000 0.304110
vt 0.595079 0.720079
vt 0.595079 0.220079
vt 0.179110 0.750000
vt 0.320890 0.750000
vt 0.320890 0.500000
vt 0.179110 0.500000
vt 0.375000 0.804110
vt 0.375000 0.945890
vt 0.625000 0.945890
vt 0.625000 0.804110
vt 0.679110 0.750000
vt 0.820890 0.750000
vt 0.820890 0.500000
vt 0.679110 0.500000
vn -1.0000 0.0000 0.0000
vn 0.0000 0.0000 -1.0000
vn 1.0000 0.0000 0.0000
vn 0.0000 0.0000 1.0000
vn 0.0000 -1.0000 0.0000
vn 0.0000 1.0000 0.0000
usemtl Frame
s off
f 21/35/14 22/36/14 32/37/14 30/38/14 36/39/14 23/40/14
f 23/40/15 24/41/15 28/42/15 27/43/15
f 27/43/16 28/42/16 33/44/16 35/45/16 29/46/16 25/47/16
f 25/47/17 26/48/17 22/49/17 21/50/17
f 23/51/18 27/43/18 25/47/18 21/52/18
f 28/42/19 24/53/19 22/54/19 26/48/19
f 36/55/17 35/56/17 33/57/17 34/58/17
f 25/47/16 29/46/16 31/59/16 33/44/16 28/42/16 26/48/16
f 23/40/14 36/39/14 34/60/14 32/37/14 22/36/14 24/41/14
f 30/61/19 29/62/19 35/63/19 36/64/19
f 29/65/15 30/66/15 32/67/15 31/68/15
f 31/69/18 32/70/18 34/71/18 33/72/18
o Plane
v 2.008691 3.236549 0.257561
v 2.008691 1.407615 0.257561
v 2.008691 3.236549 -1.571373
v 2.008691 1.407615 -1.571373
vt 0.000000 0.000000
vt 1.000000 0.000000
vt 1.000000 1.000000
vt 0.000000 1.000000
vn 1.0000 0.0000 0.0000
usemtl Window
s off
f 37/73/20 38/74/20 40/75/20 39/76/20
